<svg width="19" height="21" viewBox="0 0 19 21" fill="none" xmlns="http://www.w3.org/2000/svg">
<path d="M9.275 6.125C7.54463 6.125 6.125 7.54463 6.125 9.275C6.125 11.0054 7.54463 12.425 9.275 12.425C11.0054 12.425 12.425 11.0054 12.425 9.275C12.425 7.54463 11.0054 6.125 9.275 6.125ZM9.275 7.7C10.1542 7.7 10.85 8.39583 10.85 9.275C10.85 10.1542 10.1542 10.85 9.275 10.85C8.39583 10.85 7.7 10.1542 7.7 9.275C7.7 8.39583 8.39583 7.7 9.275 7.7Z" fill="#5F73F1" stroke="#5F73F1" stroke-width="0.3"/>
<path fill-rule="evenodd" clip-rule="evenodd" d="M13.9832 4.1303C14.6303 4.77723 15.1437 5.54528 15.4938 6.39063C15.8441 7.23596 16.0243 8.14201 16.0243 9.05703C16.0243 9.97204 15.8441 10.8781 15.4938 11.7234C15.1437 12.5688 14.6303 13.3368 13.9832 13.9837L9.05648 18.9077L4.12976 13.9823C3.48277 13.3354 2.96955 12.5673 2.61941 11.722C2.26926 10.8766 2.08904 9.9706 2.08904 9.05563C2.08904 8.14065 2.26926 7.23464 2.61941 6.38931C2.96955 5.54397 3.48277 4.77589 4.12976 4.12891C4.77675 3.48191 5.54484 2.9687 6.39015 2.61855C7.23549 2.2684 8.14151 2.08819 9.05648 2.08819C9.97146 2.08819 10.8775 2.2684 11.7228 2.61855C12.5682 2.9687 13.3362 3.48191 13.9832 4.12891V4.1303ZM15.4601 15.4606C16.7268 14.1941 17.5894 12.5804 17.9389 10.8236C18.2884 9.06679 18.1091 7.24578 17.4237 5.59089C16.7382 3.93599 15.5774 2.52152 14.0881 1.52634C12.5987 0.531172 10.8477 0 9.05648 0C7.26525 0 5.51424 0.531172 4.02489 1.52634C2.53555 2.52152 1.37476 3.93599 0.689309 5.59089C0.00387322 7.24578 -0.175431 9.06679 0.174079 10.8236C0.52359 12.5804 1.38621 14.1941 2.65285 15.4606L7.57818 20.3874C7.77227 20.5816 8.00272 20.7357 8.25639 20.8407C8.51004 20.9459 8.78192 21 9.05648 21C9.33106 21 9.60293 20.9459 9.85659 20.8407C10.1102 20.7357 10.3407 20.5816 10.5348 20.3874L15.4601 15.4606Z" fill="#5F73F1"/>
</svg>
